<svg width="904" height="904" viewBox="0 0 904 904" fill="none" xmlns="http://www.w3.org/2000/svg">
<rect width="904" height="904" rx="220" fill="white"/>
<path fill-rule="evenodd" clip-rule="evenodd" d="M393.058 709.177C549.401 707.882 675.74 580.742 675.74 424.094C675.74 355.08 651.218 291.794 610.413 242.474C704.057 281.049 769.977 373.216 769.977 480.779C769.977 623.06 654.635 738.403 512.353 738.403C469.306 738.403 428.725 727.845 393.058 709.177ZM334.587 703.677C269.171 651.438 227.26 571.003 227.26 480.779C227.26 323.326 354.9 195.685 512.353 195.685C531.542 195.685 550.287 197.581 568.413 201.195C583.791 213.476 597.871 227.315 610.413 242.474C580.186 230.023 547.072 223.155 512.353 223.155C370.072 223.155 254.729 338.497 254.729 480.779C254.729 580.013 310.836 666.143 393.058 709.177C392.255 709.184 391.451 709.187 390.647 709.187C371.458 709.187 352.713 707.291 334.587 703.677ZM334.587 703.677C203.979 677.634 105.553 562.358 105.553 424.094C105.553 266.641 233.194 139 390.647 139C457.875 139 519.669 162.27 568.413 201.195C699.021 227.238 797.447 342.514 797.447 480.779C797.447 638.232 669.806 765.872 512.353 765.872C445.125 765.872 383.331 742.602 334.587 703.677Z" fill="#222222"/>
</svg>
