<svg width="1584" height="366" viewBox="0 0 1584 366" fill="none" xmlns="http://www.w3.org/2000/svg">
<path fill-rule="evenodd" clip-rule="evenodd" d="M167.46 332.105C258.523 331.351 332.111 257.297 332.111 166.055C332.111 125.858 317.828 88.9966 294.06 60.2693C348.604 82.7378 387 136.421 387 199.072C387 281.946 319.818 349.128 236.945 349.128C211.871 349.128 188.234 342.978 167.46 332.105ZM133.403 328.902C95.3009 298.474 70.8891 251.624 70.8891 199.072C70.8891 107.362 145.235 33.0169 236.945 33.0169C248.121 33.0169 259.039 34.121 269.597 36.2262C278.554 43.3793 286.755 51.4401 294.06 60.2693C276.455 53.017 257.167 49.0169 236.945 49.0169C154.071 49.0169 86.8891 116.199 86.8891 199.072C86.8891 256.872 119.569 307.04 167.46 332.105C166.992 332.109 166.524 332.111 166.055 332.111C154.879 332.111 143.961 331.007 133.403 328.902ZM133.403 328.902C57.3292 313.732 0 246.589 0 166.055C0 74.3455 74.3455 0 166.055 0C205.213 0 241.206 13.5539 269.597 36.2262C345.671 51.3952 403 118.539 403 199.072C403 290.782 328.654 365.128 236.945 365.128C197.787 365.128 161.794 351.574 133.403 328.902Z" fill="#222222"/>
<path d="M485.823 96.9973H523.635L574.272 220.591H576.27L626.907 96.9973H664.718V267.564H635.069V150.383H633.487L586.348 267.064H564.194L517.055 150.133H515.473V267.564H485.823V96.9973ZM752.833 270.062C740.341 270.062 729.514 267.314 720.352 261.817C711.191 256.32 704.084 248.631 699.032 238.747C694.035 228.864 691.536 217.316 691.536 204.101C691.536 190.887 694.035 179.31 699.032 169.371C704.084 159.433 711.191 151.715 720.352 146.218C729.514 140.722 740.341 137.973 752.833 137.973C765.326 137.973 776.153 140.722 785.314 146.218C794.476 151.715 801.555 159.433 806.552 169.371C811.604 179.31 814.131 190.887 814.131 204.101C814.131 217.316 811.604 228.864 806.552 238.747C801.555 248.631 794.476 256.32 785.314 261.817C776.153 267.314 765.326 270.062 752.833 270.062ZM753 245.91C759.774 245.91 765.437 244.05 769.99 240.33C774.543 236.554 777.93 231.502 780.151 225.172C782.427 218.842 783.565 211.791 783.565 204.018C783.565 196.189 782.427 189.11 780.151 182.78C777.93 176.395 774.543 171.315 769.99 167.539C765.437 163.764 759.774 161.876 753 161.876C746.06 161.876 740.285 163.764 735.677 167.539C731.124 171.315 727.709 176.395 725.433 182.78C723.212 189.11 722.101 196.189 722.101 204.018C722.101 211.791 723.212 218.842 725.433 225.172C727.709 231.502 731.124 236.554 735.677 240.33C740.285 244.05 746.06 245.91 753 245.91ZM887.192 269.813C877.142 269.813 868.148 267.231 860.208 262.067C852.268 256.903 845.994 249.408 841.386 239.58C836.777 229.753 834.473 217.815 834.473 203.768C834.473 189.554 836.805 177.561 841.469 167.789C846.188 157.962 852.546 150.549 860.541 145.552C868.536 140.5 877.448 137.973 887.275 137.973C894.771 137.973 900.934 139.25 905.764 141.804C910.595 144.303 914.426 147.329 917.258 150.882C920.089 154.38 922.283 157.684 923.837 160.793H925.086V96.9973H955.319V267.564H925.669V247.409H923.837C922.283 250.518 920.034 253.822 917.091 257.32C914.148 260.762 910.262 263.705 905.431 266.148C900.601 268.591 894.521 269.813 887.192 269.813ZM895.604 245.077C901.989 245.077 907.43 243.356 911.928 239.913C916.425 236.415 919.84 231.557 922.172 225.339C924.503 219.12 925.669 211.874 925.669 203.601C925.669 195.328 924.503 188.138 922.172 182.031C919.895 175.923 916.508 171.176 912.011 167.789C907.569 164.402 902.1 162.709 895.604 162.709C888.886 162.709 883.278 164.458 878.78 167.956C874.283 171.454 870.896 176.284 868.62 182.447C866.343 188.61 865.205 195.662 865.205 203.601C865.205 211.597 866.343 218.731 868.62 225.005C870.952 231.224 874.366 236.138 878.864 239.747C883.416 243.3 888.997 245.077 895.604 245.077ZM1044.08 270.062C1031.25 270.062 1020.18 267.397 1010.85 262.067C1001.58 256.681 994.442 249.075 989.445 239.247C984.447 229.364 981.949 217.732 981.949 204.351C981.949 191.192 984.447 179.643 989.445 169.705C994.497 159.71 1001.55 151.937 1010.6 146.385C1019.65 140.777 1030.28 137.973 1042.5 137.973C1050.38 137.973 1057.82 139.25 1064.82 141.804C1071.87 144.303 1078.09 148.189 1083.47 153.464C1088.91 158.739 1093.19 165.457 1096.3 173.619C1099.41 181.725 1100.96 191.386 1100.96 202.602V211.847H996.107V191.525H1072.06C1072.01 185.751 1070.76 180.615 1068.31 176.118C1065.87 171.565 1062.46 167.983 1058.07 165.374C1053.74 162.764 1048.69 161.459 1042.91 161.459C1036.75 161.459 1031.34 162.959 1026.67 165.957C1022.01 168.9 1018.37 172.786 1015.76 177.617C1013.21 182.392 1011.9 187.639 1011.85 193.357V211.097C1011.85 218.537 1013.21 224.922 1015.93 230.252C1018.65 235.527 1022.45 239.58 1027.34 242.412C1032.22 245.188 1037.94 246.576 1044.5 246.576C1048.88 246.576 1052.85 245.965 1056.41 244.744C1059.96 243.467 1063.04 241.607 1065.65 239.164C1068.26 236.721 1070.23 233.695 1071.56 230.086L1099.71 233.251C1097.94 240.691 1094.55 247.187 1089.55 252.739C1084.61 258.236 1078.28 262.511 1070.56 265.565C1062.85 268.563 1054.02 270.062 1044.08 270.062ZM1126.47 267.564V139.639H1155.7V160.96H1157.03C1159.37 153.575 1163.36 147.884 1169.03 143.886C1174.75 139.833 1181.27 137.807 1188.6 137.807C1190.26 137.807 1192.12 137.89 1194.18 138.057C1196.29 138.168 1198.04 138.362 1199.43 138.64V166.373C1198.15 165.929 1196.12 165.54 1193.35 165.207C1190.63 164.819 1187.99 164.624 1185.43 164.624C1179.94 164.624 1175 165.818 1170.61 168.205C1166.28 170.537 1162.86 173.786 1160.37 177.95C1157.87 182.114 1156.62 186.917 1156.62 192.358V267.564H1126.47ZM1249.6 192.608V267.564H1219.46V139.639H1248.27V161.376H1249.77C1252.71 154.214 1257.41 148.523 1263.85 144.303C1270.34 140.083 1278.37 137.973 1287.92 137.973C1296.74 137.973 1304.43 139.861 1310.98 143.637C1317.59 147.412 1322.7 152.881 1326.31 160.044C1329.97 167.206 1331.78 175.895 1331.72 186.112V267.564H1301.57V190.776C1301.57 182.225 1299.35 175.535 1294.91 170.704C1290.52 165.874 1284.44 163.458 1276.67 163.458C1271.4 163.458 1266.71 164.624 1262.6 166.956C1258.54 169.233 1255.35 172.536 1253.02 176.867C1250.74 181.198 1249.6 186.445 1249.6 192.608ZM1471.22 96.9973H1502.12V208.432C1502.12 220.647 1499.24 231.391 1493.46 240.663C1487.74 249.935 1479.69 257.181 1469.31 262.4C1458.93 267.564 1446.79 270.146 1432.91 270.146C1418.98 270.146 1406.82 267.564 1396.43 262.4C1386.05 257.181 1378 249.935 1372.28 240.663C1366.56 231.391 1363.7 220.647 1363.7 208.432V96.9973H1394.6V205.85C1394.6 212.957 1396.16 219.287 1399.27 224.839C1402.43 230.391 1406.87 234.75 1412.59 237.915C1418.31 241.024 1425.08 242.579 1432.91 242.579C1440.74 242.579 1447.52 241.024 1453.23 237.915C1459.01 234.75 1463.45 230.391 1466.56 224.839C1469.67 219.287 1471.22 212.957 1471.22 205.85V96.9973ZM1566.61 96.9973V267.564H1535.71V96.9973H1566.61Z" fill="#222222"/>
</svg>
